<svg xmlns="http://www.w3.org/2000/svg" viewBox="0 0 216.38 216.5" fill-rule="evenodd" xmlns:v="https://vecta.io/nano"><path d="M181.89 216.5H34.49C15.59 216.5 0 200.91 0 181.89V34.61C0 15.59 15.59 0 34.49 0h147.4c19.02 0 34.49 15.59 34.49 34.61V181.9c0 19.02-15.47 34.61-34.49 34.61h0z" fill="#60269e"/><path d="M76.71 51.2h62.95c14.17 0 25.75 11.58 25.75 25.75v62.6c0 14.17-11.57 25.75-25.75 25.75H76.71c-14.17 0-25.63-11.57-25.63-25.75v-62.6c0-14.17 11.46-25.75 25.63-25.75h0zm31.3 32.36h.35c13.58 0 24.8 11.22 24.8 24.69h0c0 13.82-11.22 25.04-24.8 25.04h-.35c-13.46 0-24.69-11.22-24.69-25.04h0c0-13.46 11.22-24.69 24.69-24.69h0zm0-12.87h.35c20.43 0 37.56 17.13 37.56 37.56h0c0 20.79-17.13 37.56-37.56 37.56h-.35c-20.43 0-37.21-16.77-37.21-37.56h0c0-20.43 16.77-37.56 37.21-37.56h0zm37.32-7.2h0c4.25 0 7.91 3.54 7.91 7.91h0c0 4.25-3.66 7.8-7.91 7.8h0c-4.61 0-7.91-3.54-7.91-7.8h0c0-4.37 3.31-7.91 7.91-7.91h0zM76.47 39.4h63.54c20.43 0 37.21 16.77 37.21 37.21v63.31c0 20.43-16.77 37.21-37.21 37.21H76.47c-20.43 0-37.32-16.77-37.32-37.21V76.61c0-20.43 16.89-37.21 37.32-37.21h0z" fill="#fff"/></svg>