<svg xmlns="http://www.w3.org/2000/svg" viewBox="0 0 216.5 216.5" fill-rule="evenodd" xmlns:v="https://vecta.io/nano"><path d="M181.89 216.5H34.61C15.59 216.5 0 200.91 0 181.89V34.61C0 15.59 15.59 0 34.61 0H181.9c19.02 0 34.61 15.59 34.61 34.61V181.9c0 19.02-15.59 34.61-34.61 34.61h0z" fill="#60269e"/><path d="M87.99 189.92h29.53v-68.03h21.73l4.37-27.52h-26.1V73.58c0-7.68 7.32-12.05 14.41-12.05h12.76v-22.8l-22.8-1.06c-21.85-1.3-33.9 15.83-33.9 36.26v20.43h-24.8v27.52h24.8v68.03z" fill="#fff"/></svg>