<svg xmlns="http://www.w3.org/2000/svg" viewBox="0 0 216.5 216.5" fill-rule="evenodd" xmlns:v="https://vecta.io/nano"><path d="M182.01 216.5H34.61C15.59 216.5 0 200.91 0 181.89V34.61C0 15.59 15.59 0 34.61 0h147.4c18.9 0 34.49 15.59 34.49 34.61V181.9c0 19.02-15.59 34.61-34.49 34.61h0z" fill="#60269e"/><path d="M151.95 67.68c-7.91-4.72-13.94-13.82-15.47-22.91-.24-2.13-.59-3.9-.59-6.02h-23.86v95.2c0 11.1-9.09 20.2-20.2 20.2-3.66 0-6.73-.94-9.69-2.36-6.38-3.43-10.87-10.28-10.87-17.83 0-11.22 8.98-20.32 20.55-20.32 2.01 0 3.9.35 6.02.95V90.38c-2.13-.24-4.02-.59-6.02-.59-24.57 0-44.41 19.61-44.41 44.17 0 14.76 7.44 28.11 19.02 35.91 7.2 4.84 15.95 7.91 25.39 7.91 24.45 0 44.06-19.72 44.06-43.82V84.35c9.09 8.15 21.14 12.05 33.19 11.22V71.71c-6.02 1.18-12.05-.59-17.13-4.02h0z" fill="#fff"/></svg>